<svg xmlns="http://www.w3.org/2000/svg" viewBox="0 0 984.04 368.02"><g id="Primary_Logo" data-name="Primary Logo"><path d="M521.55,257.74h-22.2a9.51,9.51,0,0,1-6.21-1.93,11.75,11.75,0,0,1-3.55-4.88l-19.83-51.19H374.63L354.8,250.93a11.51,11.51,0,0,1-3.55,4.74,9.46,9.46,0,0,1-6.21,2.07h-22.2l84.78-212h29.15ZM382.62,179h79.15L428.48,92.77a161.32,161.32,0,0,1-6.36-20Q420.5,78.87,418.94,84c-1,3.41-2.05,6.39-3,9ZM554,46.68a14.82,14.82,0,0,1,4.22,3.92L681,210.39c-.3-2.56-.49-5-.59-7.47s-.15-4.76-.15-7V45.72h25.15v212H691a12.17,12.17,0,0,1-5.69-1.19,14.31,14.31,0,0,1-4.52-4L558.09,92.92q.3,3.69.44,7.25t.15,6.51V257.74H533.53v-212h14.8A12.87,12.87,0,0,1,554,46.68ZM902.53,151.8q0,23.82-7.55,43.35a96.16,96.16,0,0,1-21.3,33.44,95.14,95.14,0,0,1-33,21.53q-19.23,7.62-42.61,7.62h-79.3v-212h79.3q23.38,0,42.61,7.62a94.6,94.6,0,0,1,33,21.6A96.92,96.92,0,0,1,895,108.45Q902.53,128,902.53,151.8Zm-29.44,0q0-19.53-5.33-34.92a73.72,73.72,0,0,0-15.09-26A64.36,64.36,0,0,0,829,74.57,81.77,81.77,0,0,0,798.07,69H747.62V234.51h50.45A81.77,81.77,0,0,0,829,228.89a64.79,64.79,0,0,0,23.68-16.2,72.88,72.88,0,0,0,15.09-26Q873.08,171.33,873.09,151.8ZM350.14,318.08h-3a1.35,1.35,0,0,1-.85-.26,1.64,1.64,0,0,1-.49-.67l-2.71-7H330l-2.71,7a1.58,1.58,0,0,1-.49.65,1.26,1.26,0,0,1-.85.28h-3l11.6-29h4Zm-19-10.77H342L337.4,295.5a20.88,20.88,0,0,1-.87-2.74c-.15.56-.3,1.07-.44,1.53s-.28.88-.41,1.23Zm50.39,4.78a.82.82,0,0,1,.59.26l1.54,1.68a12.43,12.43,0,0,1-4.32,3.22,14.77,14.77,0,0,1-6.13,1.16,14.29,14.29,0,0,1-5.69-1.09,12.37,12.37,0,0,1-4.36-3,13.68,13.68,0,0,1-2.79-4.68,17.6,17.6,0,0,1-1-6,16.48,16.48,0,0,1,1.07-6,13.69,13.69,0,0,1,3-4.7,13.25,13.25,0,0,1,4.6-3,15.57,15.57,0,0,1,5.93-1.09,13.17,13.17,0,0,1,9.64,3.69l-1.28,1.8a1.3,1.3,0,0,1-.32.34,1,1,0,0,1-.53.13,1,1,0,0,1-.55-.2c-.2-.12-.43-.28-.7-.47s-.59-.39-.95-.61a9.36,9.36,0,0,0-1.3-.61,10.85,10.85,0,0,0-1.74-.47,12,12,0,0,0-2.29-.19,11,11,0,0,0-4.27.8,9.53,9.53,0,0,0-3.33,2.27,10.27,10.27,0,0,0-2.17,3.61,13.74,13.74,0,0,0-.78,4.76,14,14,0,0,0,.78,4.84,10.5,10.5,0,0,0,2.12,3.6,8.9,8.9,0,0,0,3.19,2.23,10.07,10.07,0,0,0,4,.77,16.29,16.29,0,0,0,2.33-.15,10,10,0,0,0,1.92-.47,8.67,8.67,0,0,0,1.64-.82,15.19,15.19,0,0,0,1.53-1.19A1,1,0,0,1,381.51,312.09Zm38.94,6H416.5v-13.2H400.86v13.2h-3.95v-29h3.95V302H416.5V289.06h3.95Zm19.85,0h-3.93v-29h3.93Zm33.76-29v3.2H460.13v9.64h11.28V305H460.13v9.9h13.93v3.2H456.18v-29Zm10.39,0h3.14a1.27,1.27,0,0,1,.85.26,1.58,1.58,0,0,1,.49.67l8.2,20.48a15.4,15.4,0,0,1,.52,1.5c.16.54.31,1.1.46,1.68q.18-.87.39-1.68a11.46,11.46,0,0,1,.5-1.5L507.16,290a1.69,1.69,0,0,1,.49-.64,1.24,1.24,0,0,1,.85-.29h3.16l-11.83,29h-3.55Zm56.9,0v3.2H527.42v9.64H538.7V305H527.42v9.9h13.93v3.2H523.47v-29Zm32.48.13a2,2,0,0,1,.58.53l16.81,21.88c0-.35-.07-.69-.08-1s0-.65,0-1V289.06h3.44v29h-2a1.67,1.67,0,0,1-.78-.16,1.94,1.94,0,0,1-.62-.55l-16.79-21.85c0,.34.05.67.06,1s0,.62,0,.89v20.68H571v-29h2A1.74,1.74,0,0,1,573.83,289.19Zm53.81-.13v3.2H613.7v9.64H625V305H613.7v9.9h13.94v3.2H609.75v-29Zm10.51,0h3.26a1.36,1.36,0,0,1,.87.26,1.27,1.27,0,0,1,.47.67l6,20.17c.1.37.2.76.29,1.18s.17.86.25,1.31c.1-.45.19-.9.29-1.32a9.79,9.79,0,0,1,.32-1.17L656.73,290a1.54,1.54,0,0,1,.47-.64,1.3,1.3,0,0,1,.86-.29h1.14a1.32,1.32,0,0,1,.86.26,1.39,1.39,0,0,1,.47.67l6.79,20.17a20.65,20.65,0,0,1,.65,2.41c.08-.44.15-.87.22-1.27a10.7,10.7,0,0,1,.26-1.14l6-20.17a1.25,1.25,0,0,1,.46-.65,1.31,1.31,0,0,1,.86-.28h3.06l-9.06,29h-3.52l-7.36-22.14a13.3,13.3,0,0,1-.4-1.45c-.07.27-.13.53-.19.77a7.05,7.05,0,0,1-.2.68l-7.39,22.14h-3.52Zm93.7,14.52a16.3,16.3,0,0,1-1,5.93,12.86,12.86,0,0,1-7.43,7.53,15.65,15.65,0,0,1-5.84,1H706.7v-29h10.85a15.65,15.65,0,0,1,5.84,1,12.92,12.92,0,0,1,4.51,3,13.17,13.17,0,0,1,2.92,4.58A16.39,16.39,0,0,1,731.85,303.58Zm-4,0a14.46,14.46,0,0,0-.73-4.78,10.12,10.12,0,0,0-2.06-3.57,8.76,8.76,0,0,0-3.24-2.22,11.08,11.08,0,0,0-4.24-.77h-6.9V314.9h6.9a11.08,11.08,0,0,0,4.24-.77,8.76,8.76,0,0,0,3.24-2.22,9.86,9.86,0,0,0,2.06-3.55A14.46,14.46,0,0,0,727.82,303.58ZM750,318.08H746v-29H750ZM770.16,306v12.11h-3.91v-29h8.2a18,18,0,0,1,4.76.55,9.22,9.22,0,0,1,3.31,1.61,6.42,6.42,0,0,1,1.94,2.55,8.89,8.89,0,0,1,.14,6.2,7.34,7.34,0,0,1-1.41,2.4,8.29,8.29,0,0,1-2.25,1.82,10.8,10.8,0,0,1-3,1.13,4.32,4.32,0,0,1,1.29,1.24l8.47,11.52h-3.48a1.69,1.69,0,0,1-1.58-.83l-7.54-10.37a2.23,2.23,0,0,0-.75-.7,2.71,2.71,0,0,0-1.21-.21Zm0-2.86h4.11a9.92,9.92,0,0,0,3-.41,6.2,6.2,0,0,0,2.19-1.18,4.82,4.82,0,0,0,1.32-1.81,5.87,5.87,0,0,0,.45-2.33,4.63,4.63,0,0,0-1.71-3.91,8.29,8.29,0,0,0-5.1-1.31h-4.29Zm47.76-14.05v3.2H804v9.64h11.29V305H804v9.9h13.94v3.2H800v-29Zm34.21,23a.84.84,0,0,1,.59.26l1.54,1.68a12.37,12.37,0,0,1-4.33,3.22,14.69,14.69,0,0,1-6.12,1.16,14.34,14.34,0,0,1-5.7-1.09,12.34,12.34,0,0,1-4.35-3,13.86,13.86,0,0,1-2.8-4.68,17.6,17.6,0,0,1-1-6,16.48,16.48,0,0,1,1.07-6,13.67,13.67,0,0,1,3-4.7,13.38,13.38,0,0,1,4.61-3,15.57,15.57,0,0,1,5.93-1.09,13.17,13.17,0,0,1,9.64,3.69l-1.28,1.8a1.3,1.3,0,0,1-.32.34,1,1,0,0,1-.53.13,1.06,1.06,0,0,1-.56-.2l-.7-.47c-.27-.19-.58-.39-.95-.61a8.69,8.69,0,0,0-1.29-.61,10.7,10.7,0,0,0-1.75-.47,11.92,11.92,0,0,0-2.28-.19,10.94,10.94,0,0,0-4.27.8,9.53,9.53,0,0,0-3.33,2.27,10.44,10.44,0,0,0-2.18,3.61,13.74,13.74,0,0,0-.78,4.76,14,14,0,0,0,.78,4.84,10.67,10.67,0,0,0,2.13,3.6,8.9,8.9,0,0,0,3.19,2.23,10.07,10.07,0,0,0,4,.77,16.39,16.39,0,0,0,2.33-.15,9.71,9.71,0,0,0,1.91-.47,8.11,8.11,0,0,0,1.64-.82,13.23,13.23,0,0,0,1.53-1.19A1.05,1.05,0,0,1,852.13,312.09Zm35.17-23v3.3h-9.38v25.72H874V292.36h-9.42v-3.3Zm16.89,29h-3.93v-29h3.93ZM947,303.58a16.78,16.78,0,0,1-1,6,13.6,13.6,0,0,1-2.92,4.68,13.08,13.08,0,0,1-4.53,3.05,16.19,16.19,0,0,1-11.68,0,13,13,0,0,1-4.51-3.05,13.6,13.6,0,0,1-2.92-4.68,17.93,17.93,0,0,1,0-12,13.74,13.74,0,0,1,2.92-4.69,13,13,0,0,1,4.51-3.07,16.05,16.05,0,0,1,11.68,0,13.12,13.12,0,0,1,4.53,3.07,13.74,13.74,0,0,1,2.92,4.69A16.78,16.78,0,0,1,947,303.58Zm-4,0a14.66,14.66,0,0,0-.73-4.8,10.25,10.25,0,0,0-2.07-3.6,8.83,8.83,0,0,0-3.24-2.25,11.77,11.77,0,0,0-8.48,0,9,9,0,0,0-3.26,2.25,10.1,10.1,0,0,0-2.07,3.6,16.11,16.11,0,0,0,0,9.59,10.14,10.14,0,0,0,2.07,3.59,9.09,9.09,0,0,0,3.26,2.24,11.91,11.91,0,0,0,8.48,0A8.93,8.93,0,0,0,940.2,312a10.29,10.29,0,0,0,2.07-3.59A14.56,14.56,0,0,0,943,303.58Zm20.3-14.39a1.92,1.92,0,0,1,.58.53l16.81,21.88c0-.35-.06-.69-.08-1s0-.65,0-1V289.06H984v29h-2a1.67,1.67,0,0,1-.78-.16,2,2,0,0,1-.62-.55l-16.79-21.85q0,.51.06,1c0,.32,0,.62,0,.89v20.68H960.5v-29h2A1.69,1.69,0,0,1,963.3,289.19Z" fill="#fff"/><path d="M189.3,259.18l27.4-32.11,11.86,10.12a1.15,1.15,0,0,0,1.89-.93l-2-41.49a1.14,1.14,0,0,0-1.27-1.08l-41.28,4.53a1.15,1.15,0,0,0-.62,2l12.05,10.28L171.36,240.9,169.53,239,93.2,161.4a147.68,147.68,0,0,1-12-13.43A81.82,81.82,0,0,1,73,135.56a57.23,57.23,0,0,1-4.72-12,47.77,47.77,0,0,1-1.58-12.42,41.13,41.13,0,0,1,2.87-15.47A36.59,36.59,0,0,1,90.42,75.06a44.65,44.65,0,0,1,16.67-3A37.22,37.22,0,0,1,122,74.88a37.85,37.85,0,0,1,10.93,7,38.74,38.74,0,0,1,7.41,9.45,45.38,45.38,0,0,1,4.17,10,7.48,7.48,0,0,0,3.06,4.64,8.58,8.58,0,0,0,4.54,1.29,8.73,8.73,0,0,0,1.66-.18L174.35,103a56.11,56.11,0,0,0-5.84-21.4,58.7,58.7,0,0,0-13.89-18.06,69.46,69.46,0,0,0-20.84-12.51,72.56,72.56,0,0,0-26.69-4.73,82.19,82.19,0,0,0-29.73,5.1,67.33,67.33,0,0,0-22.52,13.9A59.58,59.58,0,0,0,40.67,86a65.7,65.7,0,0,0-4.91,25.38,75.2,75.2,0,0,0,5.37,28q5.38,13.51,16.68,27.79a121.23,121.23,0,0,0-23.16,13.34,93.11,93.11,0,0,0-18.25,17.6,80.31,80.31,0,0,0-12,21.4A69,69,0,0,0,0,244,68.23,68.23,0,0,0,6.86,275a72.91,72.91,0,0,0,18.06,23.25A79.46,79.46,0,0,0,50.4,312.78a87.4,87.4,0,0,0,29.08,5q27.24,0,49.94-9.82a133.22,133.22,0,0,0,40.11-26.68l26.68,26.87a23.22,23.22,0,0,0,7.41,5.37,24.56,24.56,0,0,0,8.71,1.3H244.2Zm-67,24.14Q105.8,290.91,85,290.91a56.9,56.9,0,0,1-18.9-3.24,49.85,49.85,0,0,1-16.48-9.54,47,47,0,0,1-16.12-36.69,56.4,56.4,0,0,1,9.91-32.14Q53.35,194.57,73,184l78.37,79.11A99.77,99.77,0,0,1,122.28,283.32Z" fill="#fff"/><rect x="277.66" width="3.24" height="368.02" fill="#fff"/></g></svg>