<svg xmlns="http://www.w3.org/2000/svg" viewBox="0 0 661.1 272.69"><g id="Primary_Logo" data-name="Primary Logo"><path d="M242.61,212H220.42a9.52,9.52,0,0,1-6.21-1.92,11.8,11.8,0,0,1-3.56-4.89L190.83,154H95.69L75.87,205.21A11.59,11.59,0,0,1,72.32,210,9.47,9.47,0,0,1,66.1,212H43.91L128.69,0h29.14ZM103.68,133.31h79.16L149.55,47.05a161.11,161.11,0,0,1-6.36-20q-1.63,6.06-3.18,11.17t-3,9ZM275.09,1a14.81,14.81,0,0,1,4.21,3.92L402.11,164.67q-.45-3.84-.6-7.47c-.09-2.41-.14-4.76-.14-7V0h25.15V212H412a12.34,12.34,0,0,1-5.7-1.18,14.33,14.33,0,0,1-4.51-4L279.16,47.2q.29,3.69.44,7.25c.1,2.36.15,4.54.15,6.51V212H254.59V0h14.8A13,13,0,0,1,275.09,1Zm348.5,105.12q0,23.83-7.54,43.35a96,96,0,0,1-21.31,33.44,94.86,94.86,0,0,1-33,21.53Q542.5,212,519.14,212H439.83V0h79.31q23.37,0,42.61,7.62a94.47,94.47,0,0,1,33,21.6,96.8,96.8,0,0,1,21.31,33.51Q623.6,82.26,623.59,106.08Zm-29.44,0q0-19.53-5.33-34.91a73.54,73.54,0,0,0-15.09-26,64.3,64.3,0,0,0-23.67-16.28,81.77,81.77,0,0,0-30.92-5.62H468.68V188.79h50.46a81.77,81.77,0,0,0,30.92-5.62A64.84,64.84,0,0,0,573.73,167a72.79,72.79,0,0,0,15.09-26Q594.16,125.61,594.15,106.08ZM27.2,272.36h-3a1.3,1.3,0,0,1-.86-.26,1.65,1.65,0,0,1-.48-.67l-2.72-7h-13l-2.71,7a1.6,1.6,0,0,1-.49.65,1.28,1.28,0,0,1-.85.28H0l11.61-29h4Zm-19-10.77H19l-4.56-11.81a24.42,24.42,0,0,1-.87-2.74c-.15.56-.29,1.07-.43,1.53s-.28.88-.42,1.23Zm50.4,4.78a.86.86,0,0,1,.59.26l1.54,1.68a12.37,12.37,0,0,1-4.33,3.22,14.74,14.74,0,0,1-6.13,1.16,14.29,14.29,0,0,1-5.69-1.09,12.44,12.44,0,0,1-4.35-3,13.85,13.85,0,0,1-2.8-4.69,17.6,17.6,0,0,1-1-6,16.39,16.39,0,0,1,1.06-6,13.75,13.75,0,0,1,3-4.7,13.31,13.31,0,0,1,4.61-3.05A15.72,15.72,0,0,1,51,243a13.78,13.78,0,0,1,5.52,1,14.08,14.08,0,0,1,4.13,2.69l-1.28,1.8a1.34,1.34,0,0,1-.33.34.92.92,0,0,1-.52.13,1,1,0,0,1-.56-.19l-.7-.48c-.27-.19-.58-.39-.95-.61a8.84,8.84,0,0,0-1.3-.61,11.34,11.34,0,0,0-4-.66,10.92,10.92,0,0,0-4.26.8,9.42,9.42,0,0,0-3.33,2.28,10.3,10.3,0,0,0-2.18,3.6,13.78,13.78,0,0,0-.78,4.76,14,14,0,0,0,.78,4.84,10.67,10.67,0,0,0,2.13,3.6,9.05,9.05,0,0,0,3.19,2.24,10.25,10.25,0,0,0,4,.77,16.3,16.3,0,0,0,2.33-.16,9.88,9.88,0,0,0,1.91-.47,8.11,8.11,0,0,0,1.64-.82,12.21,12.21,0,0,0,1.53-1.19A1,1,0,0,1,58.58,266.37Zm38.93,6h-4v-13.2H77.92v13.2H74v-29h4v12.94H93.56V243.34h4Zm19.85,0h-3.93v-29h3.93Zm33.77-29v3.2H137.19v9.64h11.28v3.08H137.19v9.9h13.94v3.2H133.24v-29Zm10.39,0h3.14a1.35,1.35,0,0,1,.85.26,1.74,1.74,0,0,1,.49.67l8.2,20.48a13.15,13.15,0,0,1,.51,1.5c.16.54.31,1.1.46,1.68.12-.58.25-1.14.4-1.68a11.47,11.47,0,0,1,.49-1.5l8.17-20.48a1.66,1.66,0,0,1,.48-.64,1.29,1.29,0,0,1,.85-.29h3.16l-11.83,29h-3.54Zm56.9,0v3.2H204.48v9.64h11.28v3.08H204.48v9.9h13.94v3.2H200.53v-29Zm32.48.13a2.1,2.1,0,0,1,.57.54l16.82,21.87c-.05-.35-.07-.69-.09-1s0-.65,0-1V243.34h3.45v29h-2a1.67,1.67,0,0,1-.78-.16,2.14,2.14,0,0,1-.62-.54L251.45,249.8q0,.51.06,1c0,.33,0,.62,0,.89v20.68h-3.44v-29h2A1.74,1.74,0,0,1,250.9,243.47Zm53.81-.13v3.2H290.77v9.64h11.28v3.08H290.77v9.9h13.94v3.2H286.82v-29Zm10.51,0h3.26a1.43,1.43,0,0,1,.87.26,1.37,1.37,0,0,1,.47.67l6,20.17a12,12,0,0,1,.29,1.18c.09.42.18.86.26,1.32.09-.46.19-.91.28-1.33a10.28,10.28,0,0,1,.33-1.17l6.82-20.17a1.48,1.48,0,0,1,.48-.64,1.31,1.31,0,0,1,.86-.29h1.13a1.38,1.38,0,0,1,.86.26,1.46,1.46,0,0,1,.48.67l6.79,20.17a21.31,21.31,0,0,1,.64,2.41c.08-.44.16-.87.23-1.27a7.62,7.62,0,0,1,.26-1.14l6-20.17a1.21,1.21,0,0,1,.45-.65,1.33,1.33,0,0,1,.86-.28h3.06l-9.05,29h-3.53L336,250.22a13.16,13.16,0,0,1-.41-1.45c-.06.27-.13.53-.19.78a6.94,6.94,0,0,1-.19.67l-7.39,22.14h-3.53Zm93.7,14.52a16.35,16.35,0,0,1-1,5.94,13.12,13.12,0,0,1-2.92,4.57,12.93,12.93,0,0,1-4.52,2.95,15.59,15.59,0,0,1-5.83,1H383.76v-29h10.86a15.79,15.79,0,0,1,5.83,1,13,13,0,0,1,4.52,3,13.12,13.12,0,0,1,2.92,4.59A16.3,16.3,0,0,1,408.92,257.86Zm-4,0a14.5,14.5,0,0,0-.73-4.78,10.16,10.16,0,0,0-2.07-3.56,8.67,8.67,0,0,0-3.24-2.23,11.06,11.06,0,0,0-4.23-.77h-6.91v22.66h6.91a11.06,11.06,0,0,0,4.23-.77,8.86,8.86,0,0,0,3.24-2.21,10.07,10.07,0,0,0,2.07-3.56A14.46,14.46,0,0,0,404.89,257.86ZM427,272.36H423.1v-29H427Zm20.19-12.11v12.11h-3.91v-29h8.21a18.05,18.05,0,0,1,4.76.55,9.3,9.3,0,0,1,3.31,1.61,6.49,6.49,0,0,1,1.93,2.55,9,9,0,0,1,.15,6.21,7.83,7.83,0,0,1-1.41,2.4,8.57,8.57,0,0,1-2.25,1.81,11,11,0,0,1-3,1.13,4.23,4.23,0,0,1,1.3,1.24l8.46,11.52h-3.48a1.7,1.7,0,0,1-1.58-.83l-7.53-10.37a2.33,2.33,0,0,0-.75-.7,2.76,2.76,0,0,0-1.22-.21Zm0-2.85h4.11a9.9,9.9,0,0,0,3-.42,6.35,6.35,0,0,0,2.19-1.17,5,5,0,0,0,1.33-1.82,6,6,0,0,0,.44-2.33,4.63,4.63,0,0,0-1.71-3.91,8.32,8.32,0,0,0-5.09-1.31h-4.3ZM495,243.34v3.2H481.05v9.64h11.28v3.08H481.05v9.9H495v3.2H477.1v-29Zm34.21,23a.82.82,0,0,1,.58.26l1.54,1.68a12.43,12.43,0,0,1-4.32,3.22,14.77,14.77,0,0,1-6.13,1.16,14.29,14.29,0,0,1-5.69-1.09,12.57,12.57,0,0,1-4.36-3,13.82,13.82,0,0,1-2.79-4.69,17.6,17.6,0,0,1-1-6,16.39,16.39,0,0,1,1.06-6,13.6,13.6,0,0,1,3-4.7,13.31,13.31,0,0,1,4.61-3.05,15.72,15.72,0,0,1,5.92-1.09,13.28,13.28,0,0,1,9.64,3.69L530,248.5a1.53,1.53,0,0,1-.33.34.92.92,0,0,1-.52.13,1,1,0,0,1-.56-.19l-.7-.48c-.27-.19-.59-.39-1-.61a9.36,9.36,0,0,0-1.3-.61,11.34,11.34,0,0,0-4-.66,10.92,10.92,0,0,0-4.26.8A9.55,9.55,0,0,0,514,249.5a10.28,10.28,0,0,0-2.17,3.6,13.78,13.78,0,0,0-.78,4.76,14,14,0,0,0,.78,4.84,10.82,10.82,0,0,0,2.12,3.6,9.14,9.14,0,0,0,3.19,2.24,10.29,10.29,0,0,0,4,.77,16.19,16.19,0,0,0,2.33-.16,10,10,0,0,0,1.92-.47,8.38,8.38,0,0,0,1.64-.82,13.86,13.86,0,0,0,1.53-1.19A1,1,0,0,1,529.2,266.37Zm35.16-23v3.3H555v25.72h-3.93V246.64h-9.42v-3.3Zm16.89,29h-3.93v-29h3.93Zm42.84-14.5a16.74,16.74,0,0,1-1,6,13.74,13.74,0,0,1-2.92,4.69,12.92,12.92,0,0,1-4.52,3,16.19,16.19,0,0,1-11.68,0,13,13,0,0,1-4.52-3,13.71,13.71,0,0,1-2.91-4.69,17.74,17.74,0,0,1,0-12,13.66,13.66,0,0,1,2.91-4.7,13.08,13.08,0,0,1,4.52-3.07,16.05,16.05,0,0,1,11.68,0,13,13,0,0,1,4.52,3.07,13.68,13.68,0,0,1,2.92,4.7A16.69,16.69,0,0,1,624.09,257.86Zm-4,0a14.66,14.66,0,0,0-.73-4.8,10.08,10.08,0,0,0-2.06-3.6,9,9,0,0,0-3.24-2.25,11.8,11.8,0,0,0-8.49,0,9.08,9.08,0,0,0-3.25,2.25,10.12,10.12,0,0,0-2.08,3.6,16.11,16.11,0,0,0,0,9.59,10.16,10.16,0,0,0,2.08,3.59,9,9,0,0,0,3.25,2.25,12.09,12.09,0,0,0,8.49,0,8.83,8.83,0,0,0,3.24-2.25,10.12,10.12,0,0,0,2.06-3.59A14.56,14.56,0,0,0,620.06,257.86Zm20.31-14.39a2.11,2.11,0,0,1,.58.54l16.81,21.87c0-.35-.07-.69-.08-1s0-.65,0-1V243.34h3.44v29h-2a1.61,1.61,0,0,1-.78-.16,2,2,0,0,1-.62-.54L640.93,249.8l.06,1c0,.33,0,.62,0,.89v20.68h-3.45v-29h2A1.74,1.74,0,0,1,640.37,243.47Z" fill="#fff"/></g></svg>